<?xml version="1.0" encoding="UTF-8" standalone="no"?>
<svg
   xmlns:dc="http://purl.org/dc/elements/1.1/"
   xmlns:cc="http://creativecommons.org/ns#"
   xmlns:rdf="http://www.w3.org/1999/02/22-rdf-syntax-ns#"
   xmlns:svg="http://www.w3.org/2000/svg"
   xmlns="http://www.w3.org/2000/svg"
   xmlns:sodipodi="http://sodipodi.sourceforge.net/DTD/sodipodi-0.dtd"
   xmlns:inkscape="http://www.inkscape.org/namespaces/inkscape"
   viewBox="0 0 131.45709 27.740187"
   version="1.1"
   id="svg8"
   inkscape:version="1.0.1 (3bc2e813f5, 2020-09-07)"
   sodipodi:docname="automatum_data_second_version_416.svg">
  <defs
     id="defs2" />
  <sodipodi:namedview
     id="base"
     pagecolor="#ffffff"
     bordercolor="#666666"
     borderopacity="1.0"
     inkscape:pageopacity="0.0"
     inkscape:pageshadow="2"
     inkscape:zoom="0.33594891"
     inkscape:cx="109.65045"
     inkscape:cy="-229.96759"
     inkscape:document-units="mm"
     inkscape:current-layer="layer1"
     inkscape:document-rotation="0"
     showgrid="false"
     inkscape:window-width="1280"
     inkscape:window-height="738"
     inkscape:window-x="-6"
     inkscape:window-y="-6"
     inkscape:window-maximized="1" />
  <metadata
     id="metadata5">
    <rdf:RDF>
      <cc:Work
         rdf:about="">
        <dc:format>image/svg+xml</dc:format>
        <dc:type
           rdf:resource="http://purl.org/dc/dcmitype/StillImage" />
        <dc:title></dc:title>
      </cc:Work>
    </rdf:RDF>
  </metadata>
  <g
     inkscape:label="Ebene 1"
     inkscape:groupmode="layer"
     id="layer1"
     transform="translate(-76.821651,-209.01226)">
    <g
       id="g20"
       transform="matrix(0.35277777,0,0,-0.35277777,37.550253,327.88235)">
      <g
         id="g22">
        <path
           d="m 143.8189,258.321 27.5496,40.0272 26.5714,38.6064 H 165.4418 L 111.3205,258.321 Z"
           style="fill:#00a2e9;fill-opacity:1;fill-rule:evenodd;stroke:none"
           id="path24" />
        <path
           d="m 171.3685,298.3482 v -13.341 h 26.5714 v 51.9474 z"
           style="fill:#1470b8;fill-opacity:1;fill-rule:evenodd;stroke:none"
           id="path26" />
        <path
           d="M 197.9399,285.0072 H 171.3685 V 258.321 h 26.5714 z"
           style="fill:#2c3e68;fill-opacity:1;fill-rule:evenodd;stroke:none"
           id="path28" />
      </g>
      <g
         id="g30">
        <path
           d="m 241.6689,292.3217 -11.869,27.8921 h -5.6183 l -11.8689,-27.8921 h 6.2116 c 4.028,9.8821 4.208,10.3714 8.3871,20.573 4.5479,-11.1007 3.7083,-9.0938 8.388,-20.573 z m 27.9714,12.0668 v 15.6277 h -6.0928 V 304.151 c 0,-2.2153 -0.5275,-3.877 -1.5829,-4.985 -1.055,-1.1073 -2.5186,-1.6617 -4.3914,-1.6617 -1.8723,0 -3.3364,0.574 -4.3914,1.7212 -1.0551,1.1474 -1.5829,2.8556 -1.5829,5.1236 v 15.6671 h -6.0922 v -15.8256 c 0,-4.0881 1.0681,-7.1611 3.2045,-9.2179 2.1365,-2.0574 5.0639,-3.0861 8.7832,-3.0861 1.8462,0 3.5209,0.2571 5.0247,0.7716 1.5032,0.5139 2.7822,1.292 3.8372,2.334 1.0551,1.042 1.8664,2.3406 2.433,3.8971 0.5675,1.5562 0.851,3.3894 0.851,5.4992 z m 27.18,10.0094 v 5.6183 h -22.9468 v -5.6183 h 8.4269 v -22.0762 h 6.0925 v 22.0762 z m 32.8771,-8.2292 v 0.0793 c 0,1.978 -0.3632,3.8311 -1.0883,5.5585 -0.7254,1.728 -1.7407,3.2312 -3.0464,4.5108 -1.3056,1.2787 -2.855,2.2943 -4.6485,3.0461 -1.7938,0.7517 -3.7587,1.1276 -5.8952,1.1276 -2.1365,0 -4.1077,-0.3759 -5.9148,-1.1276 -1.8065,-0.7518 -3.3624,-1.7805 -4.6681,-3.0858 -1.3056,-1.3057 -2.3281,-2.8225 -3.0662,-4.5502 -0.7384,-1.7274 -1.1081,-3.5802 -1.1081,-5.5587 v -0.0788 c 0,-1.9781 0.3626,-3.8311 1.0882,-5.5591 0.7254,-1.7274 1.7408,-3.2306 3.0464,-4.5102 1.3054,-1.279 2.8551,-2.2943 4.6486,-3.0461 1.7937,-0.7517 3.7587,-1.1276 5.8952,-1.1276 2.1362,0 4.1077,0.3759 5.9148,1.1276 1.8065,0.7518 3.3624,1.7805 4.6681,3.0861 1.3056,1.3054 2.3275,2.8222 3.0662,4.5499 0.7384,1.7274 1.1081,3.5801 1.1081,5.5582 z m -6.3701,-0.0788 c 0,-1.1869 -0.2041,-2.3015 -0.6131,-3.3429 -0.4088,-1.0423 -0.976,-1.9585 -1.7013,-2.7502 -0.7252,-0.7912 -1.6022,-1.4108 -2.6309,-1.8593 -1.029,-0.4487 -2.1495,-0.6723 -3.363,-0.6723 -1.2396,0 -2.3672,0.2307 -3.3826,0.6919 -1.0154,0.4618 -1.8989,1.0882 -2.651,1.8794 -0.7511,0.7911 -1.3317,1.7146 -1.7404,2.7697 -0.4091,1.0551 -0.6132,2.1756 -0.6132,3.3625 v 0.0793 c 0,1.1872 0.2041,2.3015 0.6132,3.3432 0.4087,1.042 0.9759,1.9582 1.7013,2.7499 0.7251,0.7912 1.5957,1.4108 2.611,1.8592 1.0154,0.4482 2.143,0.6724 3.3829,0.6724 1.2129,0 2.334,-0.2307 3.363,-0.6919 1.0284,-0.4618 1.9185,-1.0882 2.6705,-1.8794 0.7512,-0.7917 1.3317,-1.7147 1.7405,-2.7697 0.409,-1.0551 0.6131,-2.1762 0.6131,-3.363 z m 39.4844,-13.7682 v 27.6945 h -6.5676 l -7.2797,-11.7111 -7.2793,11.7111 h -6.5676 v -27.6945 h 6.0134 v 17.962 l 7.7148,-11.711 h 0.1584 l 7.7942,11.8295 v -18.0805 z m 33.6291,0 -11.869,27.8921 h -5.6182 l -11.869,-27.8921 h 6.2116 c 3.6592,8.9782 4.4521,10.9672 8.3871,20.573 4.737,-11.5622 3.3075,-8.1108 8.388,-20.573 z m 25.2417,22.0762 v 5.6183 h -22.9468 v -5.6183 h 8.4269 v -22.0762 h 6.0925 v 22.0762 z m 28.3668,-10.0094 v 15.6277 h -6.093 V 304.151 c 0,-2.2153 -0.5276,-3.877 -1.5826,-4.985 -1.0551,-1.1073 -2.5186,-1.6617 -4.3915,-1.6617 -1.8725,0 -3.3363,0.574 -4.3917,1.7212 -1.055,1.1474 -1.5826,2.8556 -1.5826,5.1236 v 15.6671 h -6.0925 v -15.8256 c 0,-4.0881 1.0684,-7.1611 3.2046,-9.2179 2.1365,-2.0574 5.0641,-3.0861 8.7831,-3.0861 1.8463,0 3.521,0.2571 5.0247,0.7716 1.5033,0.5139 2.7822,1.292 3.8373,2.334 1.0553,1.042 1.8663,2.3406 2.4333,3.8971 0.5672,1.5562 0.8509,3.3894 0.8509,5.4992 z m 33.9055,-12.0668 v 27.6945 h -6.5676 l -7.2799,-11.7111 -7.2794,11.7111 h -6.5676 v -27.6945 h 6.0134 v 17.962 l 7.7148,-11.711 h 0.1585 l 7.7944,11.8295 v -18.0805 z"
           style="fill:#2c3e68;fill-opacity:1;fill-rule:nonzero;stroke:none"
           id="path32" />
        <path
           d="m 310.5371,274.9499 v 0.0544 c 0,1.3411 -0.2449,2.5869 -0.7341,3.7377 -0.4893,1.1509 -1.1824,2.1524 -2.0795,3.0036 -0.8972,0.8518 -1.9661,1.5177 -3.2077,1.9982 -1.2413,0.4805 -2.6053,0.7205 -4.0913,0.7205 h -7.4208 v -19.0286 h 7.4208 c 1.486,0 2.85,0.2449 4.0913,0.7341 1.2416,0.4893 2.3105,1.1597 3.2077,2.0115 0.8971,0.8515 1.5902,1.8575 2.0795,3.0172 0.4892,1.1599 0.7341,2.4103 0.7341,3.7514 z m -4.3767,-0.0542 c 0,-0.8518 -0.1406,-1.622 -0.4215,-2.3108 -0.2806,-0.6885 -0.6704,-1.2866 -1.1684,-1.7943 -0.4986,-0.5074 -1.101,-0.8966 -1.8079,-1.1685 -0.7067,-0.2721 -1.4863,-0.4081 -2.3381,-0.4081 h -3.2349 v 11.4718 h 3.2349 c 0.8518,0 1.6314,-0.1406 2.3381,-0.4215 0.7069,-0.2807 1.3093,-0.6753 1.8079,-1.1827 0.498,-0.5074 0.8878,-1.1143 1.1684,-1.8209 0.2809,-0.707 0.4215,-1.4772 0.4215,-2.3108 z m 36.9032,-9.46 -8.155,19.1647 h -3.8603 l -8.1549,-19.1647 h 4.2678 l 1.7402,4.2675 h 8.0461 l 1.7396,-4.2675 z m -7.6111,7.9647 h -5.0564 l 2.5279,6.1705 z m 35.2177,7.2037 v 3.8602 h -15.7666 v -3.8602 h 5.7903 v -15.1684 h 4.1862 v 15.1684 z m 32.0102,-15.1684 -8.155,19.1647 h -3.8602 l -8.155,-19.1647 h 4.2678 l 1.7402,4.2675 h 8.0462 l 1.7396,-4.2675 z m -7.611,7.9647 h -5.0565 l 2.528,6.1705 z"
           style="fill:#2c3e68;fill-opacity:1;fill-rule:nonzero;stroke:none"
           id="path34" />
      </g>
    </g>
  </g>
</svg>
